# xmcd
#
# Track frame offsets:
#	150
#	10798
#	26473
#	45373
#	66150
#	83248
#	98628
#	111230
#	137400
#	153750
#	172125
#	186303
#	207305
#	226058
#	239700
#	254705
#	272633
#	285530
#	303008
#
# Disc length: 4341 seconds
#
# Revision: 1
# Processed by: cddbd v1.5.1PL0 Copyright (c) Steve Scherf et al.
# Submitted via: audiograbber 1.83.01
#
DISCID=fc10f313
DTITLE=Alexis Korner - Bootleg Him!
DYEAR=1972
DGENRE=Blues
TTITLE0=She Fooled Me
TTITLE1=I'm A Hoochie Coochie Man
TTITLE2=Yellow Dog Blues
TTITLE3=I Woder Who
TTITLE4=Dee
TTITLE5=Oh Lord, Don't Let Them
TTITLE6=Rockin'
TTITLE7=Honesty
TTITLE8=I Got A Woman
TTITLE9=Mighty Spade and Whitey
TTITLE10=Corina
TTITLE11=Operator
TTITLE12=The Love You Save
TTITLE13=Jesus Is Just Allright
TTITLE14=That's All
TTITLE15=Evil Hearted Woman
TTITLE16=Clay House Inn
TTITLE17=Love IS Gonna Go
TTITLE18=Sunrise
EXTD=
EXTT0=
EXTT1=
EXTT2=
EXTT3=
EXTT4=
EXTT5=
EXTT6=
EXTT7=
EXTT8=
EXTT9=
EXTT10=
EXTT11=
EXTT12=
EXTT13=
EXTT14=
EXTT15=
EXTT16=
EXTT17=
EXTT18=
PLAYORDER=
